<svg xmlns="http://www.w3.org/2000/svg" viewBox="0 0 574.98 247.7"><defs><style>.cls-1{fill:#365570;}.cls-2{fill:#67aeb4;}.cls-3{fill:#fcfcfc;}</style></defs><g id="Layer_2" data-name="Layer 2"><g id="Layer_1-2" data-name="Layer 1"><path class="cls-1" d="M.19,87.05Q.37,84,.7,81c.12-1.11.26-2.23.42-3.34a16.74,16.74,0,0,1,.54-3.24c.7-2,1.05-4.15,1.75-6.17A111.28,111.28,0,0,1,7.55,57.66a88.73,88.73,0,0,1,23-31.15A104.28,104.28,0,0,1,57.63,9.2,103.14,103.14,0,0,1,90.14.62,132.45,132.45,0,0,1,123,1.48a105.42,105.42,0,0,1,26.9,8.16,101.24,101.24,0,0,1,27.62,18.48A96.7,96.7,0,0,1,201.24,63a85.28,85.28,0,0,1,5.72,42,118.21,118.21,0,0,1-12.32,39.78A232.37,232.37,0,0,1,179.4,171a349.73,349.73,0,0,1-35.88,44.71c-7.79,8.17-15.91,16-24.46,23.38a86.85,86.85,0,0,1-8.09,6.05c-5.39,3.66-8.9,3.48-14-.59A325.14,325.14,0,0,1,53.29,202a318.26,318.26,0,0,1-22.94-29.47c-8.86-13.06-17.35-26.38-23-41.23a135.87,135.87,0,0,1-4.8-14.27c-.45-1.73-.84-3.48-1.15-5.24-.44-2.48-.66-5-.89-7.53S.1,99.12,0,96.53C0,93.37,0,90.2.19,87.05Zm173.23-1.33c1.28-1.2.8-2.58.43-4l.28-3.49c.64-.48.75-1,0-1.51a102.54,102.54,0,0,0,.58-15.17,7.07,7.07,0,0,0-4-6.41c-2.54-1.36-5.37-1.69-8-2.26a245.57,245.57,0,0,1-27.17-7.65,149.39,149.39,0,0,1-28.07-13,5.41,5.41,0,0,0-5.07-.63c-2.54,1-4.75,2.5-7.14,3.69-5.89,2.94-11.7,6-17.83,8.46a152,152,0,0,1-21.21,6.65c-5.2,1.23-10.39,2.57-15.7,3.34S32.13,57.65,32.47,63c.59,9.13.86,18.29,2.09,27.38a135,135,0,0,0,5,23.22,140.54,140.54,0,0,0,7.78,19.16,107.47,107.47,0,0,0,17.17,25.72,121.93,121.93,0,0,0,34.21,25.57c3.17,1.64,6.2,2.28,9.42.33,7-4.22,14.19-8,20.69-13a108.09,108.09,0,0,0,28-32.17A123,123,0,0,0,168.21,112,151.59,151.59,0,0,0,173.42,85.72Z"/><path class="cls-1" d="M273.44,33.3c8.24.06,15.11,1.75,21.34,5.85,2,1.28,2.74,2.83,1.94,5.05-.69,1.9-.18,4-1,5.88-1.12,2.77-1.77,3.07-4.43,1.79-5.84-2.83-11.78-5.36-18.46-5.09a11.54,11.54,0,0,0-7,2.21,6.79,6.79,0,0,0,.72,11.32c3.56,2.2,7.65,3,11.53,4.4,6.21,2.19,12.58,4.09,17.46,8.85,5.8,5.65,7.22,12.64,5.63,20.34-2.33,11.34-10.38,16.29-20.93,18a44,44,0,0,1-32.06-6.77c-2.06-1.33-3.08-2.89-2.26-5.37.69-2.12,1.22-4.3,2-6.4,1-2.75,1.87-2.72,4-1.43a54.35,54.35,0,0,0,11.16,5.31c5,1.64,10.1,2.67,15.37,1,4.52-1.46,6.7-4.07,6.74-8.34.05-4-2.42-7.22-6.55-8.65-6-2.07-12.27-3.37-18-6.09-6.33-3-11.7-7.14-13.47-14.43-1-3.92-1.15-8.14.22-11.79a21.53,21.53,0,0,1,16.06-14.14C267,34,270.59,33,273.44,33.3Z"/><path class="cls-1" d="M481.93,184.65c-5.41,0-10.83,0-16.24,0-1.51,0-2.28,0-1.61,2,1.64,4.95,5.29,7.49,10,8.55a28.23,28.23,0,0,0,21.5-3.75c1.54-.94,2.1-.34,2.4,1.05.5,2.36,1,4.71,1.41,7.09a3.11,3.11,0,0,1-2,3.84c-7.76,3.53-15.78,4.31-24.22,3.62a29.85,29.85,0,0,1-13.07-3.89c-9.95-5.87-14-14.86-13.4-26.25a26.5,26.5,0,0,1,20.69-24.75c10.56-2.4,20.69-1.4,28.62,7.22,4.36,4.75,6,10.56,5.91,16.93,0,1.83-.11,3.66-.13,5.49,0,2.08-1,3-3.11,3-5.58,0-11.16,0-16.74,0Zm-7.12-9.83v.06c3.48,0,7,0,10.46,0,.68,0,1.47.25,1.7-.91.67-3.26-1.7-8.61-4.67-10.3-6.95-4-17.66-.53-19.38,9.31-.26,1.47.26,1.9,1.67,1.87C468,174.78,471.4,174.82,474.81,174.82Z"/><path class="cls-1" d="M432,56.52h.33a24.39,24.39,0,0,1,18.14,9.25l.17.21a22.35,22.35,0,0,1,4,7.86q.21.81.36,1.65c.66,3.89,1.21,7.54.52,11.46-.45,2.56-1.82,3.07-4,3.07l-24.74.08c-2.66,0-5.33,0-8,0-1.18,0-1.64.16-1.17,1.53a12.08,12.08,0,0,0,7.29,7.59c8,3.16,15.63,1.56,23-2.06,3.2-1.58,3.66-1.48,4.27,2.12.33,2,.66,3.92,1,5.88.3,1.59-.46,2.43-1.85,3.06a46.61,46.61,0,0,1-25.74,3.8c-9.37-1.23-17-5.38-21.86-13.72-3.64-6.3-4.4-13.27-3-20.38a27.88,27.88,0,0,1,2.71-7.78A23.73,23.73,0,0,1,408.16,64c.6-.56,1.24-1,1.87-1.54a20.85,20.85,0,0,1,2-1.5,24.17,24.17,0,0,1,4.47-2.29,29.06,29.06,0,0,1,4.38-1.32A45.28,45.28,0,0,1,432,56.52ZM428.6,80.18v-.05c3.49,0,7,0,10.47,0,.95,0,1.83-.05,1.79-1.43-.12-3.9-1.27-7.26-4.73-9.48a13,13,0,0,0-19.52,8.54c-.41,1.82,0,2.45,1.78,2.44C421.79,80.17,425.2,80.18,428.6,80.18Z"/><path class="cls-1" d="M384.77,205.72a7,7,0,0,1-2.61-1,5,5,0,0,1-1.75-2.07l-.09-.24c-.45-1.16-.9-.76-1.65-.34-2.35,1.31-4.39,3-7.12,3.86a33.4,33.4,0,0,1-11.43,1.23,19.56,19.56,0,0,1-13.7-5.86c-6.53-6.77-4.17-19.11,4.18-23.3,7.07-3.54,14.53-3.92,22.16-3.88,1.6,0,4,.86,4.67-.43,1-1.93.42-4.49-.53-6.51a8.5,8.5,0,0,0-7.47-5,32.5,32.5,0,0,0-18.06,4.14c-3.14,1.72-3.92,1.28-4-2.26-.06-2,0-4-.15-6a2.39,2.39,0,0,1,1.6-2.73c10.08-4.14,20.42-5.88,31.05-2.52,9,2.86,12.8,9.54,13.28,18.37.33,5.9.23,11.82.18,17.73a16.79,16.79,0,0,0,2.49,9.68,6.3,6.3,0,0,1,1.1,3.19,5.05,5.05,0,0,1-.25,1.72,6.32,6.32,0,0,1-.34.81c-.16.3-.37.56-.53.85a1.05,1.05,0,0,1-.69.51,2.83,2.83,0,0,0-.86.15c-.18.09-.32.25-.5.36a1.74,1.74,0,0,1-.84.21,25.51,25.51,0,0,1-3.91.12,9.32,9.32,0,0,1-1.06-.15c-.86-.15-1.71-.37-2.56-.56ZM371,183.24a16.12,16.12,0,0,0-8.33,1.43,5.83,5.83,0,0,0-3.62,5.2c-.08,2.36.51,4.44,2.74,5.68,3.77,2.09,7.72,1.69,11.52.31,4-1.46,4.43-2.39,4.37-6.65C377.6,183.24,377.6,183.24,371,183.24Z"/><path class="cls-1" d="M321.63,111.8c-5.47-.55-11-2.6-14-7.42a15.27,15.27,0,0,1-1.54-12.72A16.44,16.44,0,0,1,308.42,87c3.6-5,9.27-6.35,15-7.22a70.75,70.75,0,0,1,14.69-.68c1.5.09,1.73-.5,1.76-1.84.08-3.84-.85-7.1-4.53-9a11.46,11.46,0,0,0-5.55-1,34.88,34.88,0,0,0-15.69,4.17c-.66.35-1.35.62-2,.91-1.34.57-2.11.13-2.15-1.34-.08-2.83-.09-5.66-.16-8.49,0-1.25.84-1.78,1.76-2.16,7.92-3.3,16.13-5,24.73-3.9,8.15,1,14.68,4.53,17.82,12.63a24,24,0,0,1,1.61,8.52c0,5,.1,10,0,15-.07,4,.42,7.92,2.53,11.47a6.72,6.72,0,0,1,.9,3.6c0,2.23-.93,3.69-3.38,3.68s-5.17,0-7.74-.14a6.25,6.25,0,0,1-5.25-3.32c-.78-1.43-1.64-1.25-2.52-.41-4.65,4.38-11.58,4.86-17.64,4.43C322.25,111.86,321.94,111.84,321.63,111.8Zm12.44-23.68a20.2,20.2,0,0,0-6.71.64c-2.62.69-4.92,1.94-5.62,4.86-1,4.11.77,6.7,5.55,8.07a12.5,12.5,0,0,0,10.73-2c2.67-1.78,1.91-4.53,1.93-7C340,88.17,339.93,88.17,334.07,88.12Z"/><path class="cls-1" d="M283.6,174q0,14.25,0,28.49c0,3.08-.25,3.27-3.26,3.27-3.67,0-7.34-.12-11,0-2.45.11-3-1.09-2.95-3.17,0-7,0-14,0-21,0-12-.08-24,0-36,0-1.9-.56-2.39-2.37-2.39-5.58,0-11.16-.19-16.73-.29-1.79,0-3-.14-3.17-2.66s-.08-4.78-.32-7.15c-.19-1.94.51-2.55,2.5-2.53,10,.09,20,0,30,0,8.75,0,17.5,0,26.24-.06,2.18,0,3,.67,2.89,2.86-.14,2.41-.14,4.82-.46,7.22-.26,1.88-1.18,2.46-3,2.43-5.24-.11-10.49,0-15.74-.11-1.93-.05-2.57.47-2.55,2.5.11,9.49.05,19,.05,28.48Z"/><path class="cls-1" d="M362.21,58.72a1.07,1.07,0,0,1,.91-.8c1.72.5,3.47.15,5.21.2.63,0,1.42.13,1.38-.92q0-3.26.05-6.49c0-10.32,6.43-17.31,16.9-18.2A30.77,30.77,0,0,1,399,33.69c2.08.69,3.37,1.75,2.41,4.19-.2.52-.09,1.16-.24,1.72-.42,1.52-.56,3.27-1.44,4.46-1.23,1.69-2.81-.29-4.29-.25-1.65,0-3.33-.29-4.95.22-3.26,1-4.64,3.41-4.9,6.71-.52,6.7-.56,6.68,6.12,6.69,6.39,0,6.68-1.35,6.61,6.59,0,.75-.05,1.5,0,2.24.1,1.74-.7,2.36-2.4,2.3-2.49-.08-5,.12-7.49,0-2.2-.13-3,.52-3,2.87.12,12,.06,24,.06,36,0,3.87,0,3.88-3.89,3.88-2.83,0-5.66,0-8.49,0s-3.34-.69-3.35-3.44c0-12.15-.07-24.3,0-36.45,0-2.3-.62-3.09-2.85-2.86a31.21,31.21,0,0,1-3.74-.07,3.41,3.41,0,0,1-1-2.82C362.29,63.28,362.22,61,362.21,58.72Z"/><path class="cls-1" d="M553.4,151.53a29.66,29.66,0,0,1,15.3,3.09c1.72.87,2.55,1.93,2.25,3.89a54.69,54.69,0,0,1-.63,5.69c-.37,1.43-.91,1.93-2.47,1.35a83.57,83.57,0,0,0-9-2.88c-3.16-.78-6.35-.87-9.42.78a3.67,3.67,0,0,0-2.28,3.23,3.59,3.59,0,0,0,2.17,3.07c3.62,2.06,7.65,3.05,11.52,4.45,4.21,1.53,8.43,3.2,11.19,6.9,3.82,5.11,3.58,10.64,1.05,16.32-2.41,5.38-7,7.87-12.28,8.94-9.65,1.95-19.12,1.45-28-3.61-1.8-1-2.74-2.24-2.07-4.41s1-4.19,1.66-6.24c.41-1.29,1.17-1.86,2.62-.87a33.91,33.91,0,0,0,13.57,5.16,13.8,13.8,0,0,0,9-1.47c3-1.63,3.47-4.86.11-7-3.94-2.55-8.64-3.19-13-4.72s-8.55-3.28-11.24-7.24c-4.77-7-2.08-17.1,5.44-21.17A26.24,26.24,0,0,1,553.4,151.53Z"/><path class="cls-1" d="M423.44,185.69c3-8,5.9-15.76,8.77-23.51.8-2.16,1.57-4.35,2.19-6.57a3.61,3.61,0,0,1,3.71-3c2.83-.06,5.66-.16,8.49-.12,2.2,0,2.64.78,1.85,2.8-3.37,8.6-6.43,17.33-10.21,25.75-3.31,7.36-5.31,15.19-8.68,22.5-.71,1.55-1.54,2.5-3.5,2.35-2.73-.22-5.49-.1-8.24-.07a3.05,3.05,0,0,1-3.28-2.06c-2.84-6.86-5.8-13.67-8.7-20.5-3.21-7.55-6.43-15.11-9.59-22.69-.8-1.9-1.35-3.9-2.1-5.83-.43-1.1,0-1.48,1-1.66a80.79,80.79,0,0,1,13.19-.71,3.38,3.38,0,0,1,3.21,2.38c3.65,9.63,7.24,19.3,10.86,28.94A22.16,22.16,0,0,0,423.44,185.69Z"/><path class="cls-1" d="M524.41,167.17c0,11.9-.07,23.8.05,35.7,0,2.48-.78,3.13-3.13,3-3.06-.19-6.15,0-9.23,0-3.47,0-3.72-.25-3.74-3.67q-.06-15.84-.08-31.7c0-12,0-24,0-35.94,0-1.66.37-2.71,2.08-3,3.91-.75,7.83-1.46,11.72-2.28,1.83-.39,2.4,0,2.38,2-.1,12-.05,24-.05,35.94Z"/><path class="cls-1" d="M305.91,179.84c0-7.83.07-15.66-.05-23.48,0-2.17.87-2.87,2.83-3.22a57.84,57.84,0,0,1,10.17-.76c2.09,0,3.1.75,3,2.92,0,.86-.38,2.07.56,2.5s1.27-.84,1.83-1.34a18.62,18.62,0,0,1,15.92-4.67c3.23.45,4.64,2.58,4.24,5.81-.3,2.42-1.13,4.68-1.61,7-.3,1.45-1.08,1.79-2.54,1.4-4.1-1.1-8.25-1.51-12.36.08a8.57,8.57,0,0,0-5.49,8c.23,9.32.06,18.65,0,28,0,3.65-.17,3.75-3.85,3.73-3.49,0-7-.05-10.49,0-1.71,0-2.32-.54-2.3-2.31.08-7.9,0-15.81,0-23.72Z"/><path class="cls-1" d="M173.42,85.72c.17-1.41.25-1.72.43-4C174.22,83.14,174.7,84.52,173.42,85.72Z"/><path class="cls-1" d="M174.13,78.28a1.29,1.29,0,0,1,0-1.52C174.88,77.29,174.77,77.8,174.13,78.28Z"/><path class="cls-2" d="M163.4,71.85a128.7,128.7,0,0,1-4.9,35.42c-4.7,16-11.75,30.66-22.76,43.22a95.11,95.11,0,0,1-28.81,22,6.29,6.29,0,0,1-6.08-.14,93.82,93.82,0,0,1-31-24.45A103.6,103.6,0,0,1,53,119a127.57,127.57,0,0,1-6.94-24.56,143.78,143.78,0,0,1-1.87-28,1.79,1.79,0,0,1,1.61-2c5.64-1.37,11.3-2.68,16.88-4.25a183.45,183.45,0,0,0,20-6.57c6.88-2.83,13.58-6,20.24-9.34,2.05-1,3.45.78,4.94,1.48A221.92,221.92,0,0,0,132.4,55.9c3.9,1.3,7.81,2.72,11.7,4,4.12,1.35,8.5,2.15,12.77,3.18,7.71,1.87,6.27.36,6.53,7.77C163.41,71.19,163.4,71.52,163.4,71.85ZM78.31,102.29c-3.94,0-7.2,2.1-8.26,4.6s0,6.34,2.35,8.63q9.09,8.67,18.2,17.3c4.24,4,6.55,4,10.69-.15,10.18-10.26,20.39-20.48,30.45-30.86,3.4-3.51,7.5-6.33,10.34-10.39a6.8,6.8,0,0,0,.26-8.08c-1.7-2.38-4.58-3.17-7.79-2.39s-5.32,3.25-7.61,5.26c-10.09,8.85-20,17.84-30,26.88-1.69,1.53-2.91,1.48-4.46,0-2.5-2.41-5.07-4.74-7.63-7.07C82.69,104,80.35,102.4,78.31,102.29Z"/><path class="cls-3" d="M78.31,102.29c2,.11,4.38,1.75,6.56,3.72,2.56,2.33,5.13,4.66,7.63,7.07,1.55,1.49,2.77,1.54,4.46,0,9.93-9,19.89-18,30-26.88,2.29-2,4.36-4.48,7.61-5.26s6.09,0,7.79,2.39a6.8,6.8,0,0,1-.26,8.08c-2.84,4.06-6.94,6.88-10.34,10.39-10.06,10.38-20.27,20.6-30.45,30.86-4.14,4.18-6.45,4.18-10.69.15q-9.09-8.64-18.2-17.3c-2.4-2.29-3.41-6.12-2.35-8.63S74.37,102.31,78.31,102.29Z"/><path class="cls-3" d="M174.13,78.28l-.28,3.49a18.94,18.94,0,0,1-.43,4A151.59,151.59,0,0,1,168.21,112a123,123,0,0,1-11.43,27.29,108.09,108.09,0,0,1-28,32.17c-6.5,5-13.73,8.78-20.69,13-3.22,2-6.25,1.31-9.42-.33a121.93,121.93,0,0,1-34.21-25.57A107.47,107.47,0,0,1,47.31,132.8a140.54,140.54,0,0,1-7.78-19.16,135,135,0,0,1-5-23.22c-1.23-9.09-1.5-18.25-2.09-27.38-.34-5.39,2.77-8.44,8.07-9.21s10.5-2.11,15.7-3.34a152,152,0,0,0,21.21-6.65c6.13-2.44,11.94-5.52,17.83-8.46,2.39-1.19,4.6-2.73,7.14-3.69a5.41,5.41,0,0,1,5.07.63,149.39,149.39,0,0,0,28.07,13,245.57,245.57,0,0,0,27.17,7.65c2.67.57,5.5.9,8,2.26a7.07,7.07,0,0,1,4,6.41,102.35,102.35,0,0,1-.58,15.16A3,3,0,0,1,174.13,78.28ZM163.4,71.85c0-.33,0-.66,0-1-.26-7.41,1.18-5.9-6.53-7.77-4.27-1-8.65-1.83-12.77-3.18-3.89-1.28-7.8-2.7-11.7-4a221.92,221.92,0,0,1-24.47-10.21C106.44,45,105,43.2,103,44.21c-6.66,3.3-13.36,6.51-20.24,9.34a183.45,183.45,0,0,1-20,6.57C57.12,61.69,51.46,63,45.82,64.37a1.79,1.79,0,0,0-1.61,2,143.78,143.78,0,0,0,1.87,28.05A127.57,127.57,0,0,0,53,119a103.6,103.6,0,0,0,16.86,28.87,93.82,93.82,0,0,0,31,24.45,6.29,6.29,0,0,0,6.08.14,95.11,95.11,0,0,0,28.81-22c11-12.56,18.06-27.27,22.76-43.22A128.7,128.7,0,0,0,163.4,71.85Z"/></g></g></svg>